<?xml version="1.0" encoding="UTF-8"?>
<svg id="a" data-name="Layer 1" xmlns="http://www.w3.org/2000/svg" viewBox="0 0 477.5 477.5">
  <rect x="70.10503" y="69.75148" width="337.28993" height="337.99704" transform="translate(-98.89349 238.75) rotate(-45)" fill="#00a84f" stroke-width="0"/>
  <path d="M241.38672,350.5c-19.82568,0-37.28027-4.70996-52.36816-14.13574-15.08789-9.42285-26.93018-22.58105-35.52246-39.47754-8.59473-16.89355-12.89062-36.47461-12.89062-58.74023,0-22.65479,4.32129-42.43018,12.96387-59.32617,8.64258-16.89355,20.53076-30.00391,35.66895-39.33105,15.13574-9.32471,32.32275-13.98926,51.5625-13.98926,11.91309,0,23.07129,1.7832,33.47168,5.34668,10.40039,3.56592,19.67676,8.66797,27.83203,15.30762,8.15234,6.64209,14.91602,14.479,20.28809,23.51074,5.36914,9.03418,8.88477,19.06836,10.54688,30.10254h-33.25195c-1.66211-6.63965-4.22559-12.69385-7.69043-18.16406-3.46777-5.46777-7.74121-10.15527-12.81738-14.0625-5.0791-3.90479-10.81738-6.90771-17.21191-9.00879-6.39746-2.09863-13.30762-3.14941-20.72754-3.14941-13.47656,0-25.29395,3.39453-35.44922,10.18066-10.15771,6.78857-18.09082,16.3833-23.80371,28.78418-5.71289,12.40332-8.56934,27.00342-8.56934,43.79883,0,16.69922,2.85645,31.22656,8.56934,43.5791,5.71289,12.35547,13.69629,21.9248,23.9502,28.71094,10.25391,6.78906,22.16699,10.18066,35.74219,10.18066,11.52148,0,21.84863-2.43945,30.98145-7.32422,9.12988-4.88184,16.33301-11.71875,21.60645-20.50781s7.91016-19.04297,7.91016-30.76172l9.22852.73242h-62.98828v-27.09961h85.98633v24.90234c0,17.57812-4.05371,33.13086-12.1582,46.65527-8.10742,13.52734-19.16699,24.12207-33.17871,31.78711-14.01465,7.66797-29.9082,11.49902-47.68066,11.49902Z" fill="#fff" stroke-width="0"/>
</svg>